#!OML:ASF F:\VICON\USERDATA\INSTALL\rory7\rory7.ASF
:FULLY-SPECIFIED
:DEGREES
69
root -0.0983966 18.8716 3.96934 -2.51468 -4.13315 0.91305
lowerback 6.38153 2.31446 -2.27218
upperback 0.579289 2.87159 -1.50375
thorax -3.01167 1.44788 -0.532283
lowerneck -9.4784 -8.42628 -9.28117
upperneck 17.7993 -11.5387 7.6916
head 8.05489 -5.46732 2.8533
rclavicle 2.12824e-014 -8.74653e-015
rhumerus 7.32093 0.0111931 -71.7836
rradius 55.1954
rwrist -21.6616
rhand -41.0202 6.77316
rfingers 7.12502
rthumb -13.9511 -22.7388
lclavicle 2.12824e-014 -8.74653e-015
lhumerus -30.4919 11.7065 74.2658
lradius 21.1605
lwrist -9.67496
lhand -22.4034 22.9477
lfingers 7.12502
lthumb 4.01927 52.8896
rfemur 0 0 0
rtibia 0
rfoot 0 0
rtoes 0
lfemur 5.92576 -9.69833 -19.262
ltibia 8.46789
lfoot -11.2377 20.8165
ltoes -5.24912
70
root -0.101875 18.8723 3.97226 -2.54402 -4.02113 1.00248
lowerback 6.37428 2.32431 -2.35021
upperback 0.592338 2.87849 -1.54297
thorax -2.99605 1.45191 -0.529086
lowerneck -9.56344 -8.44041 -9.2447
upperneck 17.8704 -11.5492 7.62622
head 8.08846 -5.47235 2.82086
rclavicle -4.49875e-014 3.02153e-014
rhumerus 7.5862 0.373286 -71.6621
rradius 54.4628
rwrist -21.802
rhand -41.1421 6.81254
rfingers 7.12502
rthumb -14.0686 -22.6913
lclavicle -4.49875e-014 3.02153e-014
lhumerus -30.3765 12.0331 74.1533
lradius 20.9783
lwrist -9.95543
lhand -22.2649 22.7504
lfingers 7.12502
lthumb 4.15296 52.6897
rfemur 0 0 0
rtibia 0
rfoot 0 0
rtoes 0
lfemur 5.93641 -9.80619 -19.3641
ltibia 8.48736
lfoot -11.1964 20.8557
ltoes -5.4719
71
root -0.106647 18.8723 3.97463 -2.52802 -3.88492 1.10065
lowerback 6.30801 2.33614 -2.43167
upperback 0.603467 2.88979 -1.59049
thorax -2.94921 1.45803 -0.530298
lowerneck -9.52806 -8.45603 -9.2768
upperneck 17.8419 -11.5756 7.6733
head 8.08001 -5.48403 2.8397
rclavicle 2.62768e-014 -1.59028e-014
rhumerus 7.83344 0.625861 -71.5703
rradius 53.7508
rwrist -21.8494
rhand -41.4323 6.964
rfingers 7.12502
rthumb -14.3482 -22.5202
lclavicle 2.62768e-014 -1.59028e-014
lhumerus -30.342 12.1845 74.0988
lradius 20.8747
lwrist -10.0815
lhand -22.4016 22.491
lfingers 7.12502
lthumb 4.02092 52.4328
rfemur 0 0 0
rtibia 0
rfoot 0 0
rtoes 0
lfemur 5.90139 -9.93876 -19.4519
ltibia 8.47342
lfoot -11.1228 20.8758
ltoes -5.35356
72
root -0.110482 18.8724 3.97495 -2.47783 -3.79188 1.08275
lowerback 6.26883 2.35713 -2.38584
upperback 0.578606 2.92134 -1.60792
thorax -2.95009 1.47327 -0.575544
lowerneck -9.50396 -8.46652 -9.39916
upperneck 17.8813 -11.6038 7.81721
head 8.10803 -5.49307 2.9035
rclavicle 4.13721e-015 5.1684e-015
rhumerus 8.0511 0.785795 -71.5155
rradius 53.0263
rwrist -21.7824
rhand -41.3459 7.28626
rfingers 7.12502
rthumb -14.265 -22.2038
lclavicle 4.13721e-015 5.1684e-015
lhumerus -30.3401 12.1267 74.1295
lradius 20.8054
lwrist -9.98307
lhand -22.553 22.3976
lfingers 7.12502
lthumb 3.8748 52.3421
rfemur 0 0 0
rtibia 0
rfoot 0 0
rtoes 0
lfemur 5.83681 -10.0334 -19.4134
ltibia 8.45543
lfoot -11.0491 20.8995
ltoes -5.48032
73
root -0.112881 18.8733 3.976 -2.44838 -3.73597 1.08544
lowerback 6.25525 2.38215 -2.36657
upperback 0.553488 2.95531 -1.62761
thorax -2.96675 1.49005 -0.609702
lowerneck -9.4508 -8.45971 -9.51794
upperneck 17.8955 -11.6045 7.93846
head 8.11829 -5.49196 2.96413
rclavicle -4.75717e-014 2.78299e-015
rhumerus 8.25611 0.995005 -71.4719
rradius 52.3219
rwrist -21.5965
rhand -41.2024 7.4563
rfingers 7.12502
rthumb -14.1266 -22.0435
lclavicle -4.75717e-014 2.78299e-015
lhumerus -30.3138 12.2935 74.0657
lradius 20.6462
lwrist -10.2034
lhand -22.4146 22.5355
lfingers 7.12502
lthumb 4.00837 52.4776
rfemur 0 0 0
rtibia 0
rfoot 0 0
rtoes 0
lfemur 5.76642 -10.0885 -19.4174
ltibia 8.51167
lfoot -11.0549 20.9388
ltoes -5.71823
74
root -0.117034 18.8738 3.9793 -2.47426 -3.66037 1.09978
lowerback 6.28741 2.40898 -2.38468
upperback 0.533452 2.98771 -1.63817
thorax -3.0061 1.50658 -0.615514
lowerneck -9.27137 -8.45534 -9.5561
upperneck 17.7953 -11.6036 7.95989
head 8.05641 -5.49839 2.98508
rclavicle 3.12216e-014 9.14409e-015
rhumerus 8.39976 1.17298 -71.436
rradius 51.7456
rwrist -21.4
rhand -41.0873 7.16276
rfingers 7.12502
rthumb -14.0157 -22.3447
lclavicle 3.12216e-014 9.14409e-015
lhumerus -30.3902 12.4741 73.9869
lradius 20.5499
lwrist -10.4757
lhand -22.4216 22.6185
lfingers 7.12502
lthumb 4.0017 52.5607
rfemur 0 0 0
rtibia 0
rfoot 0 0
rtoes 0
lfemur 5.72785 -10.164 -19.435
ltibia 8.6543
lfoot -11.1667 20.9531
ltoes -5.72282
75
root -0.12249 18.8735 3.98106 -2.50481 -3.58728 1.04039
lowerback 6.34995 2.44457 -2.31869
upperback 0.511531 3.03712 -1.63195
thorax -3.06105 1.53067 -0.653977
lowerneck -9.14015 -8.46791 -9.54687
upperneck 17.7201 -11.6228 7.93575
head 8.00764 -5.51345 2.979
rclavicle 2.04997e-014 7.95139e-016
rhumerus 8.48704 1.25308 -71.3878
rradius 51.3589
rwrist -21.486
rhand -40.7252 6.86005
rfingers 7.12502
rthumb -13.6668 -22.6712
lclavicle 2.04997e-014 7.95139e-016
lhumerus -30.5266 12.4735 73.9831
lradius 20.6103
lwrist -10.5283
lhand -22.5196 22.5163
lfingers 7.12502
lthumb 3.90697 52.4603
rfemur 0 0 0
rtibia 0
rfoot 0 0
rtoes 0
lfemur 5.66511 -10.242 -19.3626
ltibia 8.84715
lfoot -11.2282 20.9707
ltoes -5.86502
76
root -0.126475 18.8731 3.97982 -2.51558 -3.54774 0.956166
lowerback 6.36156 2.47925 -2.21055
upperback 0.524691 3.09117 -1.62609
thorax -3.04892 1.55614 -0.713208
lowerneck -9.14223 -8.4855 -9.49523
upperneck 17.7016 -11.6407 7.8716
head 7.99638 -5.52408 2.94759
rclavicle -7.06928e-015 2.98177e-014
rhumerus 8.61918 1.4026 -71.3206
rradius 50.9842
rwrist -21.5177
rhand -40.5386 7.06214
rfingers 7.12502
rthumb -13.4869 -22.4812
lclavicle -7.06928e-015 2.98177e-014
lhumerus -30.582 12.5027 73.9766
lradius 20.6514
lwrist -10.5725
lhand -22.3044 22.2832
lfingers 7.12502
lthumb 4.11483 52.2232
rfemur 0 0 0
rtibia 0
rfoot 0 0
rtoes 0
lfemur 5.55173 -10.2874 -19.2602
ltibia 9.07306
lfoot -11.2709 20.9808
ltoes -5.9669
